<?xml version="1.0" standalone="no"?>
<svg xmlns="http://www.w3.org/2000/svg" width="24" height="24"><rect width="24" height="24" opacity="0"></rect><g><path d="M9.72 2.28Q8.4 2.28 7.26 2.86Q6.12 3.43 5.38 4.44L15.86 4.44Q16.87 4.44 17.72 4.93Q18.58 5.42 19.07 6.28Q19.56 7.13 19.56 8.14L19.56 18.62Q20.57 17.86 21.14 16.72Q21.72 15.58 21.72 14.28L21.72 7.78Q21.72 6.29 20.99 5.02Q20.26 3.74 18.98 3.01Q17.71 2.28 16.22 2.28L9.72 2.28Z" fill="rgba(0,0,0,1)"></path><path d="M9.22 16.8Q8.5 16.8 7.99 16.27L5.76 14.04Q5.54 13.85 5.54 13.52Q5.54 13.2 5.76 13.01Q5.98 12.79 6.29 12.79Q6.6 12.79 6.82 13.01L9.05 15.24Q9.12 15.29 9.22 15.29Q9.31 15.29 9.38 15.24L13.73 10.87Q13.94 10.66 14.26 10.66Q14.57 10.66 14.78 10.87Q15 11.09 15 11.4Q15 11.71 14.78 11.93L10.44 16.27Q9.94 16.8 9.22 16.8ZM5.26 5.74Q4.44 5.74 3.76 6.14Q3.07 6.55 2.66 7.24Q2.26 7.92 2.26 8.74L2.26 18.72Q2.26 19.54 2.66 20.23Q3.07 20.93 3.76 21.32Q4.44 21.72 5.26 21.72L15.26 21.72Q16.08 21.72 16.76 21.32Q17.45 20.93 17.86 20.23Q18.26 19.54 18.26 18.72L18.26 8.74Q18.26 7.92 17.86 7.24Q17.45 6.55 16.76 6.14Q16.08 5.74 15.26 5.74L5.26 5.74Z" fill="rgba(0,0,0,1)"></path></g></svg>