<?xml version="1.0" standalone="no"?>
<svg xmlns="http://www.w3.org/2000/svg" width="24" height="24"><rect width="24" height="24" opacity="0"></rect><g><path d="M5.26 5.74Q4.44 5.74 3.76 6.14Q3.07 6.55 2.66 7.24Q2.26 7.92 2.26 8.74L2.26 18.72Q2.26 19.54 2.66 20.23Q3.07 20.93 3.76 21.32Q4.44 21.72 5.26 21.72L15.26 21.72Q16.08 21.72 16.76 21.32Q17.45 20.93 17.86 20.23Q18.26 19.54 18.26 18.72L18.26 8.74Q18.26 7.92 17.86 7.24Q17.45 6.55 16.76 6.14Q16.08 5.74 15.26 5.74L5.26 5.74ZM14.18 13.08Q14.5 13.08 14.72 13.3Q14.95 13.51 14.95 13.82Q14.95 14.14 14.72 14.35Q14.5 14.57 14.18 14.57L10.94 14.57L10.94 17.81Q10.94 18.12 10.73 18.35Q10.51 18.58 10.2 18.58Q9.89 18.58 9.66 18.35Q9.43 18.12 9.43 17.81L9.43 14.57L6.19 14.57Q5.88 14.57 5.66 14.35Q5.45 14.14 5.45 13.82Q5.45 13.51 5.66 13.3Q5.88 13.08 6.19 13.08L9.43 13.08L9.43 9.82Q9.43 9.5 9.66 9.29Q9.89 9.07 10.2 9.07Q10.51 9.07 10.73 9.29Q10.94 9.5 10.94 9.82L10.94 13.08L14.18 13.08Z" fill="rgba(0,0,0,1)"></path><path d="M9.72 2.28Q8.4 2.28 7.26 2.86Q6.12 3.43 5.38 4.44L15.86 4.44Q16.87 4.44 17.72 4.93Q18.58 5.42 19.07 6.28Q19.56 7.13 19.56 8.14L19.56 18.62Q20.57 17.86 21.14 16.72Q21.72 15.58 21.72 14.28L21.72 7.78Q21.72 6.29 20.99 5.02Q20.26 3.74 18.98 3.01Q17.71 2.28 16.22 2.28L9.72 2.28Z" fill="rgba(0,0,0,1)"></path></g></svg>