<?xml version="1.0" standalone="no"?>
<svg xmlns="http://www.w3.org/2000/svg" width="24" height="24"><rect width="24" height="24" opacity="0"></rect><g><path d="M20.4 7.2Q20.18 5.83 19.15 4.92Q18.12 4.01 16.7 4.01L8.93 4.01Q8.69 3.58 8.23 3.32Q7.78 3.07 7.27 3.07L4.34 3.07Q3.43 3.07 2.66 3.53Q1.9 3.98 1.45 4.75Q1.01 5.52 1.01 6.43L1.01 17.57Q1.01 18.48 1.45 19.26Q1.9 20.04 2.66 20.48Q3.43 20.93 4.34 20.93L19.66 20.93Q20.57 20.93 21.34 20.48Q22.1 20.04 22.55 19.26Q22.99 18.48 22.99 17.57L22.99 10.46Q22.99 9.29 22.26 8.38Q21.53 7.46 20.4 7.2ZM11.06 7.13Q10.99 7.13 10.92 7.1Q10.85 7.08 10.79 7.03Q10.73 6.98 10.68 6.91L9.84 5.52L16.7 5.52Q17.47 5.52 18.06 5.96Q18.65 6.41 18.84 7.13L11.06 7.13ZM21.48 17.57Q21.48 18.34 20.94 18.89Q20.4 19.44 19.63 19.44L4.34 19.44Q3.58 19.44 3.04 18.89Q2.5 18.34 2.5 17.57L2.5 6.43Q2.5 5.66 3.04 5.12Q3.58 4.58 4.34 4.58L7.27 4.58Q7.39 4.58 7.5 4.64Q7.61 4.7 7.66 4.8L9.41 7.68Q9.65 8.11 10.1 8.36Q10.56 8.62 11.06 8.62L19.66 8.62Q20.42 8.62 20.96 9.16Q21.5 9.7 21.5 10.46L21.48 17.57Z" fill="rgba(0,0,0,1)"></path></g></svg>