<?xml version="1.0" standalone="no"?>
<svg xmlns="http://www.w3.org/2000/svg" width="24" height="24"><rect width="24" height="24" opacity="0"></rect><g><path d="M20.4 7.2Q20.18 5.83 19.15 4.92Q18.12 4.01 16.7 4.01L8.93 4.01Q8.69 3.58 8.23 3.32Q7.78 3.07 7.27 3.07L4.34 3.07Q3.43 3.07 2.66 3.53Q1.9 3.98 1.45 4.75Q1.01 5.52 1.01 6.43L1.01 17.57Q1.01 18.48 1.45 19.26Q1.9 20.04 2.66 20.48Q3.43 20.93 4.34 20.93L19.66 20.93Q20.57 20.93 21.34 20.48Q22.1 20.04 22.55 19.26Q22.99 18.48 22.99 17.57L22.99 10.46Q22.99 9.29 22.26 8.38Q21.53 7.46 20.4 7.2ZM11.06 7.13Q10.97 7.13 10.86 7.07Q10.75 7.01 10.68 6.91L9.84 5.52L16.7 5.52Q17.47 5.52 18.06 5.96Q18.65 6.41 18.84 7.13L11.06 7.13Z" fill="rgba(255,214,1,1)"></path></g></svg>