<?xml version="1.0" standalone="no"?>
<svg xmlns="http://www.w3.org/2000/svg" width="24" height="24"><rect width="24" height="24" opacity="0"></rect><g><path d="M14.88 15.05Q14.57 15.05 14.32 14.95Q14.06 14.86 13.9 14.69Q13.58 14.4 13.37 14.32Q13.15 14.23 12.91 14.35Q12.58 14.54 12.52 14.83Q12.46 15.12 12.65 15.46Q13.03 15.96 13.6 16.21Q14.16 16.46 14.9 16.46Q16.2 16.46 17.03 15.65Q17.86 14.83 17.86 13.51Q17.86 12.26 17.11 11.47Q16.37 10.68 15.24 10.68Q14.76 10.68 14.14 10.9L13.97 10.97L14.23 8.88L16.61 8.88Q17.16 8.88 17.3 8.66Q17.45 8.45 17.45 8.21Q17.45 7.97 17.29 7.74Q17.14 7.51 16.61 7.51L13.8 7.51Q13.44 7.51 13.21 7.72Q12.98 7.92 12.94 8.35L12.55 11.47Q12.5 11.88 12.61 12.16Q12.72 12.43 12.98 12.53Q13.15 12.6 13.31 12.56Q13.46 12.53 13.66 12.41L13.8 12.34Q14.28 12.05 14.83 12.05Q15.5 12.05 15.89 12.46Q16.27 12.86 16.27 13.56Q16.27 14.23 15.9 14.64Q15.53 15.05 14.88 15.05ZM8.81 16.54Q9.22 16.54 9.42 16.3Q9.62 16.06 9.62 15.6L9.62 8.64Q9.62 8.14 9.41 7.9Q9.19 7.66 8.74 7.66Q8.57 7.66 8.38 7.74Q8.18 7.82 7.97 7.94L7.82 8.02L6.14 8.95Q5.74 9.17 5.64 9.47Q5.54 9.77 5.69 10.01Q5.86 10.32 6.14 10.36Q6.43 10.39 6.74 10.22L8.02 9.5L8.02 15.58Q8.02 16.06 8.22 16.3Q8.42 16.54 8.81 16.54Z" fill="rgba(0,0,0,1)"></path><path d="M11.47 1.01Q8.57 1.15 6.18 2.65Q3.79 4.15 2.4 6.62Q1.01 9.1 1.01 12Q1.01 13.1 1.16 13.99Q1.32 14.88 1.7 15.86Q1.75 15.98 1.87 16.04Q1.99 16.1 2.12 16.07Q2.26 16.03 2.33 15.91L4.42 12.53Q4.49 12.43 4.46 12.3Q4.44 12.17 4.34 12.08Q4.25 12 4.1 12L2.5 12Q2.5 9.5 3.7 7.37Q4.9 5.23 6.97 3.94Q9.05 2.64 11.54 2.52Q14.14 2.4 16.37 3.58Q18.6 4.75 19.98 6.88Q21.36 9 21.48 11.57Q21.6 14.14 20.44 16.38Q19.27 18.62 17.16 19.99Q15.05 21.36 12.43 21.48Q10.63 21.58 8.81 20.92Q6.98 20.26 5.76 19.18Q5.52 18.98 5.21 19Q4.9 19.01 4.68 19.25Q4.49 19.49 4.5 19.8Q4.51 20.11 4.75 20.3Q6.29 21.62 8.39 22.33Q10.49 23.04 12.5 22.97Q15.84 22.82 18.26 21.11Q20.69 19.39 21.9 16.79Q23.11 14.18 22.97 11.5Q22.82 8.52 21.23 6.06Q19.63 3.6 17.04 2.23Q14.45 0.86 11.47 1.01Z" fill="rgba(0,0,0,1)"></path></g></svg>