<?xml version="1.0" standalone="no"?>
<svg xmlns="http://www.w3.org/2000/svg" width="24" height="24"><rect width="24" height="24" opacity="0"></rect><g><path d="M14.88 15.05Q14.57 15.05 14.32 14.95Q14.06 14.86 13.9 14.69Q13.58 14.4 13.37 14.32Q13.15 14.23 12.91 14.35Q12.58 14.54 12.52 14.83Q12.46 15.12 12.65 15.46Q13.03 15.96 13.6 16.21Q14.16 16.46 14.9 16.46Q16.2 16.46 17.03 15.65Q17.86 14.83 17.86 13.51Q17.86 12.26 17.11 11.47Q16.37 10.68 15.24 10.68Q14.76 10.68 14.14 10.9L13.97 10.97L14.23 8.88L16.61 8.88Q17.16 8.88 17.3 8.66Q17.45 8.45 17.45 8.21Q17.45 7.97 17.29 7.74Q17.14 7.51 16.61 7.51L13.8 7.51Q13.44 7.51 13.21 7.72Q12.98 7.92 12.94 8.35L12.55 11.47Q12.5 11.88 12.61 12.16Q12.72 12.43 12.98 12.53Q13.15 12.6 13.31 12.56Q13.46 12.53 13.66 12.41L13.8 12.34Q14.28 12.05 14.83 12.05Q15.5 12.05 15.89 12.46Q16.27 12.86 16.27 13.56Q16.27 14.23 15.9 14.64Q15.53 15.05 14.88 15.05ZM8.81 16.54Q9.22 16.54 9.42 16.3Q9.62 16.06 9.62 15.6L9.62 8.64Q9.62 8.14 9.41 7.9Q9.19 7.66 8.74 7.66Q8.57 7.66 8.38 7.74Q8.18 7.82 7.97 7.94L7.82 8.02L6.14 8.95Q5.74 9.17 5.64 9.47Q5.54 9.77 5.69 10.01Q5.86 10.32 6.14 10.36Q6.43 10.39 6.74 10.22L8.02 9.5L8.02 15.58Q8.02 16.06 8.22 16.3Q8.42 16.54 8.81 16.54Z" fill="rgba(0,0,0,1)"></path><path d="M12.53 1.01Q9.55 0.86 6.96 2.23Q4.37 3.6 2.77 6.06Q1.18 8.52 1.03 11.5Q0.89 14.18 2.1 16.79Q3.31 19.39 5.74 21.11Q8.16 22.82 11.5 22.97Q13.51 23.04 15.61 22.33Q17.71 21.62 19.25 20.3Q19.49 20.11 19.5 19.8Q19.51 19.49 19.32 19.25Q19.1 19.01 18.79 19Q18.48 18.98 18.24 19.18Q17.02 20.26 15.19 20.92Q13.37 21.58 11.57 21.48Q8.95 21.36 6.84 19.99Q4.73 18.62 3.56 16.38Q2.4 14.14 2.52 11.57Q2.64 9 4.02 6.88Q5.4 4.75 7.63 3.58Q9.86 2.4 12.46 2.52Q14.95 2.64 17.03 3.94Q19.1 5.23 20.3 7.37Q21.5 9.5 21.5 12L19.9 12Q19.75 12 19.66 12.08Q19.56 12.17 19.54 12.3Q19.51 12.43 19.58 12.53L21.67 15.91Q21.74 16.03 21.88 16.07Q22.01 16.1 22.13 16.04Q22.25 15.98 22.3 15.86Q22.68 14.88 22.84 13.99Q22.99 13.1 22.99 12Q22.99 9.1 21.6 6.62Q20.21 4.15 17.82 2.65Q15.43 1.15 12.53 1.01Z" fill="rgba(0,0,0,1)"></path></g></svg>