<?xml version="1.0" standalone="no"?>
<svg xmlns="http://www.w3.org/2000/svg" width="24" height="24"><rect width="24" height="24" opacity="0"></rect><g><path d="M12 10.97Q13.27 10.97 14.34 10.33Q15.41 9.7 16.04 8.62Q16.68 7.54 16.68 6.26Q16.68 4.99 16.04 3.91Q15.41 2.83 14.34 2.2Q13.27 1.56 12 1.56Q10.7 1.56 9.62 2.2Q8.54 2.83 7.92 3.91Q7.3 4.99 7.3 6.26Q7.3 7.54 7.92 8.62Q8.54 9.7 9.62 10.33Q10.7 10.97 12 10.97ZM12 3.05Q12.86 3.05 13.6 3.48Q14.33 3.91 14.76 4.66Q15.19 5.4 15.19 6.26Q15.19 7.13 14.76 7.86Q14.33 8.59 13.6 9.02Q12.86 9.46 12 9.46Q11.14 9.46 10.39 9.02Q9.65 8.59 9.22 7.86Q8.78 7.13 8.78 6.26Q8.78 5.4 9.22 4.66Q9.65 3.91 10.39 3.48Q11.14 3.05 12 3.05ZM18.74 22.06Q19.42 22.06 19.97 21.73Q20.52 21.41 20.84 20.86Q21.17 20.3 21.17 19.63Q21.17 17.59 19.92 15.88Q18.67 14.16 16.73 13.16Q14.78 12.17 12.79 12.17L11.18 12.17Q9.19 12.17 7.25 13.16Q5.3 14.16 4.07 15.88Q2.83 17.59 2.83 19.63Q2.83 20.3 3.16 20.86Q3.48 21.41 4.03 21.73Q4.58 22.06 5.23 22.06L18.74 22.06ZM12.79 13.68Q14.4 13.68 16 14.48Q17.59 15.29 18.62 16.66Q19.66 18.02 19.66 19.63Q19.66 20.02 19.39 20.29Q19.13 20.57 18.74 20.57L5.26 20.57Q4.87 20.57 4.6 20.29Q4.32 20.02 4.32 19.63Q4.32 18.02 5.35 16.66Q6.38 15.29 7.99 14.48Q9.6 13.68 11.21 13.68L12.79 13.68Z" fill="rgba(0,0,0,1)"></path></g></svg>