<?xml version="1.0" standalone="no"?>
<svg xmlns="http://www.w3.org/2000/svg" width="24" height="24"><rect width="24" height="24" opacity="0"></rect><g><path d="M15.26 7.22Q15.89 7.22 16.32 7.67Q16.75 8.11 16.75 8.74L16.75 18.72Q16.75 19.34 16.32 19.79Q15.89 20.23 15.26 20.23L5.26 20.23Q4.63 20.23 4.2 19.79Q3.77 19.34 3.77 18.72L3.77 8.74Q3.77 8.11 4.2 7.67Q4.63 7.22 5.26 7.22L15.26 7.22ZM5.26 5.74Q4.44 5.74 3.76 6.14Q3.07 6.55 2.66 7.24Q2.26 7.92 2.26 8.74L2.26 18.72Q2.26 19.54 2.66 20.23Q3.07 20.93 3.76 21.32Q4.44 21.72 5.26 21.72L15.26 21.72Q16.08 21.72 16.76 21.32Q17.45 20.93 17.86 20.23Q18.26 19.54 18.26 18.72L18.26 8.74Q18.26 7.92 17.86 7.24Q17.45 6.55 16.76 6.14Q16.08 5.74 15.26 5.74L5.26 5.74ZM9.19 16.97Q8.64 16.97 7.97 16.3L5.74 14.06Q5.52 13.85 5.52 13.54Q5.52 13.22 5.74 13.01Q5.95 12.79 6.26 12.79Q6.58 12.79 6.79 13.01L9.02 15.24Q9.1 15.29 9.2 15.29Q9.31 15.29 9.36 15.24L13.73 10.87Q13.94 10.66 14.26 10.66Q14.57 10.66 14.78 10.87Q15 11.09 15 11.4Q15 11.71 14.78 11.93L10.44 16.3Q9.77 16.97 9.19 16.97Z" fill="rgba(0,0,0,1)"></path><path d="M9.72 2.26Q8.59 2.26 7.64 2.84Q6.7 3.43 6.19 4.42L8.04 4.42Q8.4 4.1 8.82 3.94Q9.24 3.77 9.72 3.77L17.74 3.77Q18.41 3.77 18.98 4.1Q19.56 4.44 19.9 5.02Q20.23 5.59 20.23 6.26L20.23 14.26Q20.23 14.74 20.05 15.17Q19.87 15.6 19.56 15.94L19.56 17.78Q20.54 17.28 21.13 16.33Q21.72 15.38 21.72 14.26L21.72 6.26Q21.72 5.18 21.18 4.26Q20.64 3.34 19.73 2.8Q18.82 2.26 17.74 2.26L9.72 2.26Z" fill="rgba(0,0,0,1)"></path></g></svg>