<?xml version="1.0" standalone="no"?>
<svg xmlns="http://www.w3.org/2000/svg" width="24" height="24"><rect width="24" height="24" opacity="0"></rect><g><path d="M0.98 12.1Q0.98 12.91 1.19 13.96Q1.39 15 1.7 15.84Q1.75 15.98 1.88 16.03Q2.02 16.08 2.15 16.04Q2.28 16.01 2.35 15.89L4.42 12.53Q4.49 12.41 4.46 12.29Q4.44 12.17 4.34 12.08Q4.25 12 4.13 12L2.52 12Q2.52 9.5 3.72 7.37Q4.92 5.23 6.98 3.92Q9.05 2.62 11.54 2.5Q13.46 2.4 15.23 3.04Q16.99 3.67 18.38 4.97Q19.8 6.24 20.59 7.94Q21.38 9.65 21.48 11.54Q21.58 13.44 20.94 15.2Q20.3 16.97 19.03 18.36Q17.76 19.78 16.06 20.58Q14.35 21.38 12.46 21.48Q10.61 21.58 8.88 20.98Q7.15 20.38 5.76 19.15Q5.52 18.94 5.21 18.96Q4.9 18.98 4.7 19.22Q4.49 19.46 4.51 19.78Q4.54 20.09 4.78 20.28Q6.5 21.79 8.29 22.38Q10.08 22.97 12.5 22.97Q14.71 22.87 16.68 21.95Q18.65 21.02 20.14 19.39Q21.62 17.76 22.34 15.71Q23.06 13.66 22.97 11.47Q22.85 9.26 21.92 7.3Q21 5.33 19.37 3.84Q17.74 2.35 15.68 1.63Q13.63 0.91 11.45 1.01Q8.57 1.15 6.17 2.69Q3.77 4.22 2.38 6.72Q0.98 9.22 0.98 12.1Z" fill="rgba(10,89,247,1)"></path></g></svg>