<?xml version="1.0" standalone="no"?>
<svg xmlns="http://www.w3.org/2000/svg" width="24" height="24"><rect width="24" height="24" opacity="0"></rect><g><path d="M4.8 18.02Q4.27 18.02 3.89 17.64Q3.5 17.26 3.5 16.7L3.5 7.32Q3.5 6.77 3.89 6.4Q4.27 6.02 4.8 6.02L9.96 6.02L9.96 4.51L4.8 4.51Q4.06 4.51 3.41 4.9Q2.76 5.28 2.38 5.93Q1.99 6.58 1.99 7.32L1.99 16.7Q1.99 17.47 2.38 18.12Q2.76 18.77 3.4 19.14Q4.03 19.51 4.8 19.51L9.96 19.51L9.96 18.02L4.8 18.02ZM14.04 4.51L14.04 6.02L19.2 6.02Q19.75 6.02 20.12 6.4Q20.5 6.77 20.5 7.32L20.5 16.7Q20.5 17.26 20.11 17.64Q19.73 18.02 19.2 18.02L14.04 18.02L14.04 19.51L19.2 19.51Q19.97 19.51 20.6 19.14Q21.24 18.77 21.62 18.12Q22.01 17.47 22.01 16.7L22.01 7.32Q22.01 6.58 21.62 5.93Q21.24 5.28 20.59 4.9Q19.94 4.51 19.2 4.51ZM12.74 20.71L12.74 3.29L13.51 3.29Q13.82 3.29 14.04 3.07Q14.26 2.86 14.26 2.54Q14.26 2.23 14.04 2.02Q13.82 1.8 13.51 1.8L10.49 1.8Q10.18 1.8 9.95 2.02Q9.72 2.23 9.72 2.54Q9.72 2.86 9.95 3.07Q10.18 3.29 10.49 3.29L11.26 3.29L11.26 20.71L10.49 20.71Q10.18 20.71 9.95 20.93Q9.72 21.14 9.72 21.46Q9.72 21.77 9.95 21.98Q10.18 22.2 10.49 22.2L12 22.2L13.51 22.2Q13.82 22.2 14.04 21.98Q14.26 21.77 14.26 21.46Q14.26 21.14 14.04 20.93Q13.82 20.71 13.51 20.71Z" fill="rgba(0,0,0,1)"></path></g></svg>