<?xml version="1.0" standalone="no"?>
<svg xmlns="http://www.w3.org/2000/svg" width="24" height="24"><rect width="24" height="24" opacity="0"></rect><g><path d="M19.01 22.01Q19.8 22.01 20.5 21.6Q21.19 21.19 21.6 20.5Q22.01 19.8 22.01 19.01L22.01 4.99Q22.01 4.2 21.6 3.5Q21.19 2.81 20.5 2.4Q19.8 1.99 19.01 1.99L4.99 1.99Q4.18 1.99 3.49 2.4Q2.81 2.81 2.4 3.5Q1.99 4.2 1.99 4.99L1.99 19.01Q1.99 19.8 2.4 20.5Q2.81 21.19 3.49 21.6Q4.18 22.01 4.99 22.01L19.01 22.01Z" fill="rgba(232,64,38,1)"></path></g></svg>