<?xml version="1.0" standalone="no"?>
<svg xmlns="http://www.w3.org/2000/svg" width="24" height="24"><rect width="24" height="24" opacity="0"></rect><g><path d="M20.35 4.25Q20.35 3.24 19.85 2.38Q19.34 1.51 18.48 1.01Q17.62 0.5 16.61 0.5L6.62 0.5Q5.62 0.5 4.75 1.01Q3.89 1.51 3.38 2.38Q2.88 3.24 2.88 4.25L2.88 18.74Q2.88 19.75 3.38 20.62Q3.89 21.48 4.74 21.98Q5.59 22.49 6.6 22.49L18.6 22.49Q19.3 22.49 19.87 22.16Q20.45 21.84 20.78 21.28Q21.12 20.71 21.12 20.02Q21.12 19.49 20.92 19.02Q20.71 18.55 20.35 18.22L20.35 4.25ZM4.37 4.25Q4.37 3.34 5.03 2.68Q5.69 2.02 6.62 2.02L16.61 2.02Q17.54 2.02 18.2 2.68Q18.86 3.34 18.86 4.25L18.86 17.54L18.74 17.52Q18.67 17.5 18.6 17.5L6.6 17.5L6.6 19.01Q7.03 19.01 7.32 19.31Q7.61 19.61 7.61 20.02Q7.61 20.42 7.32 20.7Q7.03 20.98 6.6 20.98Q5.69 20.98 5.03 20.32Q4.37 19.66 4.37 18.74L4.37 4.25ZM8.93 20.98Q9.12 20.59 9.12 20.02Q9.12 19.75 9.07 19.5Q9.02 19.25 8.9 19.01L18.6 19.01Q19.03 19.01 19.33 19.31Q19.63 19.61 19.63 20.02Q19.63 20.42 19.33 20.7Q19.03 20.98 18.6 20.98L8.93 20.98ZM8.16 6.77Q8.26 6.77 8.32 6.71Q8.38 6.65 8.38 6.55L8.38 5.47Q8.38 5.38 8.32 5.33Q8.26 5.28 8.16 5.28L7.08 5.28Q6.98 5.28 6.92 5.33Q6.86 5.38 6.86 5.47L6.86 6.58Q6.86 6.65 6.92 6.71Q6.98 6.77 7.08 6.77L8.16 6.77ZM8.16 10.78Q8.26 10.78 8.32 10.72Q8.38 10.66 8.38 10.56L8.38 9.48Q8.38 9.38 8.32 9.32Q8.26 9.26 8.16 9.26L7.08 9.26Q6.98 9.26 6.92 9.32Q6.86 9.38 6.86 9.48L6.86 10.56Q6.86 10.66 6.92 10.72Q6.98 10.78 7.08 10.78L8.16 10.78ZM8.16 14.76Q8.26 14.76 8.32 14.71Q8.38 14.66 8.38 14.57L8.38 13.49Q8.38 13.39 8.32 13.33Q8.26 13.27 8.16 13.27L7.08 13.27Q6.98 13.27 6.92 13.33Q6.86 13.39 6.86 13.49L6.86 14.57Q6.86 14.66 6.92 14.71Q6.98 14.76 7.08 14.76L8.16 14.76ZM15.89 6.77Q16.2 6.77 16.42 6.55Q16.63 6.34 16.63 6.02Q16.63 5.71 16.42 5.5Q16.2 5.28 15.89 5.28L10.37 5.28Q10.06 5.28 9.84 5.5Q9.62 5.71 9.62 6.02Q9.62 6.34 9.84 6.55Q10.06 6.77 10.37 6.77L15.89 6.77ZM15.89 10.78Q16.2 10.78 16.42 10.55Q16.63 10.32 16.63 10.01Q16.63 9.7 16.42 9.48Q16.2 9.26 15.89 9.26L10.37 9.26Q10.06 9.26 9.84 9.48Q9.62 9.7 9.62 10.01Q9.62 10.32 9.84 10.55Q10.06 10.78 10.37 10.78L15.89 10.78ZM15.89 14.76Q16.2 14.76 16.42 14.54Q16.63 14.33 16.63 14.02Q16.63 13.7 16.42 13.49Q16.2 13.27 15.89 13.27L10.37 13.27Q10.06 13.27 9.84 13.49Q9.62 13.7 9.62 14.02Q9.62 14.33 9.84 14.54Q10.06 14.76 10.37 14.76L15.89 14.76Z" fill="rgba(255,255,255,1)"></path></g></svg>