<?xml version="1.0" standalone="no"?>
<svg xmlns="http://www.w3.org/2000/svg" width="24" height="24"><rect width="24" height="24" opacity="0"></rect><g><path d="M16.92 2.59Q16.73 2.06 16.27 1.73Q15.82 1.39 15.24 1.39L8.76 1.39Q8.18 1.39 7.73 1.73Q7.27 2.06 7.08 2.59L6.24 2.59Q5.38 2.59 4.63 3.04Q3.89 3.48 3.44 4.24Q3 4.99 3 5.86L3 19.37Q3 20.23 3.44 20.98Q3.89 21.72 4.63 22.16Q5.38 22.61 6.24 22.61L17.76 22.61Q18.62 22.61 19.37 22.16Q20.11 21.72 20.56 20.98Q21 20.23 21 19.37L21 5.86Q21 4.99 20.56 4.24Q20.11 3.48 19.37 3.04Q18.62 2.59 17.76 2.59L16.92 2.59ZM8.5 3.14Q8.5 3.02 8.57 2.95Q8.64 2.88 8.76 2.88L15.24 2.88Q15.36 2.88 15.43 2.95Q15.5 3.02 15.5 3.14L15.5 4.85Q15.5 4.94 15.43 5.02Q15.36 5.09 15.24 5.09L8.76 5.09Q8.64 5.09 8.57 5.03Q8.5 4.97 8.5 4.85L8.5 3.14ZM19.51 19.37Q19.51 20.09 18.98 20.6Q18.46 21.12 17.76 21.12L6.24 21.12Q5.52 21.12 5.02 20.6Q4.51 20.09 4.51 19.37L4.51 5.86Q4.51 5.14 5.02 4.62Q5.52 4.1 6.24 4.1L7.01 4.1L7.01 4.85Q7.01 5.54 7.52 6.07Q8.04 6.6 8.76 6.6L15.24 6.6Q15.96 6.6 16.48 6.07Q16.99 5.54 16.99 4.85L16.99 4.1L17.76 4.1Q18.46 4.1 18.98 4.62Q19.51 5.14 19.51 5.86L19.51 19.37ZM16.25 12.02Q16.56 12.02 16.78 11.81Q16.99 11.59 16.99 11.28Q16.99 10.97 16.78 10.74Q16.56 10.51 16.25 10.51L7.75 10.51Q7.44 10.51 7.22 10.74Q7.01 10.97 7.01 11.28Q7.01 11.59 7.22 11.81Q7.44 12.02 7.75 12.02L16.25 12.02ZM16.25 16.27Q16.56 16.27 16.78 16.06Q16.99 15.84 16.99 15.53Q16.99 15.22 16.78 14.99Q16.56 14.76 16.25 14.76L7.75 14.76Q7.44 14.76 7.22 14.99Q7.01 15.22 7.01 15.53Q7.01 15.84 7.22 16.06Q7.44 16.27 7.75 16.27L16.25 16.27Z" fill="rgba(255,255,255,1)"></path></g></svg>