<?xml version="1.0" standalone="no"?>
<svg xmlns="http://www.w3.org/2000/svg" width="25" height="24"><rect width="25" height="24" opacity="0"></rect><g mask="url(#hms_mask_0)"><path d="M20.65 7.18Q20.46 5.81 19.41 4.9Q18.37 3.98 16.98 3.98L9.27 3.98Q9.03 3.58 8.58 3.32Q8.12 3.07 7.64 3.07L4.71 3.07Q3.8 3.07 3.03 3.53Q2.26 3.98 1.81 4.75Q1.35 5.52 1.35 6.43L1.35 17.57Q1.35 18.48 1.81 19.26Q2.26 20.04 3.03 20.48Q3.8 20.93 4.71 20.93L20.02 20.93Q20.94 20.93 21.7 20.48Q22.47 20.04 22.92 19.26Q23.36 18.48 23.36 17.57L23.36 10.46Q23.36 9.24 22.59 8.33Q21.82 7.42 20.65 7.18ZM11.43 7.1Q11.19 7.1 11.05 6.89L10.21 5.47L16.98 5.47Q17.74 5.47 18.33 5.93Q18.92 6.38 19.11 7.1L11.43 7.1ZM21.85 17.57Q21.85 18.34 21.31 18.88Q20.77 19.42 20 19.42L4.71 19.42Q3.94 19.42 3.4 18.88Q2.86 18.34 2.86 17.57L2.86 6.43Q2.86 5.66 3.4 5.12Q3.94 4.58 4.71 4.58L7.64 4.58Q7.76 4.58 7.86 4.63Q7.95 4.68 8.02 4.8L9.78 7.68Q10.04 8.11 10.47 8.36Q10.9 8.62 11.43 8.62L20.02 8.62Q20.79 8.62 21.33 9.16Q21.87 9.7 21.87 10.46L21.85 17.57Z" fill="rgba(255,255,255,1)"></path></g><defs><mask id="hms_mask_0"><rect width="25" height="24" fill="#ffffff"></rect><g><path d="M23.12 13.18Q22.35 12.41 21.39 12.01Q20.43 11.62 19.38 11.62Q18.3 11.62 17.34 12.01Q16.38 12.41 15.61 13.18Q14.86 13.92 14.47 14.89Q14.07 15.86 14.07 16.92Q14.07 17.98 14.47 18.95Q14.86 19.92 15.61 20.66Q16.38 21.43 17.34 21.83Q18.3 22.22 19.38 22.22Q20.43 22.22 21.39 21.83Q22.35 21.43 23.12 20.66Q23.86 19.94 24.26 18.97Q24.66 18 24.66 16.92Q24.66 15.84 24.26 14.87Q23.86 13.9 23.12 13.18Z" fill="#000000"></path></g></mask></defs><g><path d="M19.38 12.91Q18.58 12.91 17.84 13.21Q17.1 13.51 16.54 14.09Q15.78 14.86 15.51 15.89Q15.25 16.92 15.51 17.94Q15.78 18.96 16.54 19.73Q17.12 20.3 17.84 20.6Q18.56 20.9 19.38 20.9Q20.14 20.9 20.89 20.6Q21.63 20.3 22.21 19.73Q22.95 18.96 23.23 17.93Q23.5 16.9 23.23 15.88Q22.95 14.86 22.21 14.09Q21.63 13.51 20.89 13.21Q20.14 12.91 19.38 12.91ZM20.26 16.46L19.14 15.34Q19.02 15.22 19.02 15.02Q19.02 14.83 19.14 14.69Q19.26 14.57 19.45 14.57Q19.64 14.57 19.78 14.69L21.54 16.44Q21.73 16.63 21.73 16.92Q21.73 17.04 21.68 17.16Q21.63 17.28 21.54 17.38L19.76 19.13Q19.69 19.2 19.62 19.24Q19.54 19.27 19.45 19.27Q19.26 19.27 19.14 19.13Q18.99 19.01 18.99 18.82Q18.99 18.62 19.14 18.5L20.26 17.35L17.46 17.35Q17.29 17.35 17.16 17.22Q17.02 17.09 17.02 16.92Q17.02 16.73 17.14 16.6Q17.26 16.46 17.46 16.46Z" fill="rgba(255,255,255,1)"></path></g></svg>