<?xml version="1.0" standalone="no"?>
<svg xmlns="http://www.w3.org/2000/svg" width="24" height="24"><rect width="24" height="24" opacity="0"></rect><g><path d="M12 22.22Q14.64 22.22 16.94 20.94Q19.25 19.66 20.68 17.44Q22.1 15.22 22.25 12.53Q22.27 12.22 22.06 11.99Q21.84 11.76 21.53 11.74Q21.22 11.71 20.99 11.92Q20.76 12.12 20.74 12.43Q20.64 14.66 19.46 16.55Q18.29 18.43 16.38 19.56Q14.47 20.69 12.24 20.74Q9.86 20.81 7.82 19.68Q5.78 18.55 4.55 16.57Q3.31 14.59 3.24 12.22Q3.19 9.91 4.24 7.93Q5.28 5.95 7.15 4.69Q9.02 3.43 11.33 3.26Q11.64 3.22 11.83 2.99Q12.02 2.76 12 2.45Q11.98 2.14 11.75 1.93Q11.52 1.73 11.21 1.75Q8.52 1.97 6.34 3.43Q4.15 4.9 2.92 7.24Q1.68 9.58 1.75 12.26Q1.82 15 3.23 17.28Q4.63 19.56 6.96 20.89Q9.29 22.22 12 22.22Z" fill="rgba(255,255,255,1)"></path><path d="M15.38 1.97Q15.07 1.87 14.81 2.02Q14.54 2.16 14.45 2.47Q14.35 2.78 14.5 3.05Q14.64 3.31 14.93 3.41L18.72 4.56Q15.41 5.57 13.69 7.57Q11.98 9.58 11.48 11.24Q10.99 12.91 10.99 13.61L10.99 13.61Q10.99 13.92 11.2 14.15Q11.4 14.38 11.71 14.38Q12.02 14.38 12.25 14.16Q12.48 13.94 12.48 13.66Q12.48 13.06 12.94 11.58Q13.39 10.1 14.99 8.39Q16.58 6.67 19.68 5.88L18.43 9.98Q18.34 10.27 18.48 10.55Q18.62 10.82 18.91 10.92Q19.18 10.99 19.48 10.86Q19.78 10.73 19.87 10.42L21.6 4.68Q21.7 4.37 21.55 4.09Q21.41 3.82 21.12 3.72L15.38 1.97Z" fill="rgba(255,255,255,1)"></path></g></svg>