<?xml version="1.0" standalone="no"?>
<svg xmlns="http://www.w3.org/2000/svg" width="24" height="24"><rect width="24" height="24" opacity="0"></rect><g><path d="M9 1.99Q8.69 1.99 8.47 2.22Q8.26 2.45 8.26 2.76L8.26 16.82L5.93 16.82Q5.64 16.82 5.45 17.02Q5.26 17.21 5.23 17.48Q5.21 17.76 5.38 17.98L8.52 21.74Q8.71 22.01 9.01 22.02Q9.31 22.03 9.53 21.82Q9.74 21.6 9.74 21.29L9.74 18.74L9.74 2.76Q9.74 2.45 9.53 2.22Q9.31 1.99 9 1.99ZM15.48 2.26Q15.29 2.02 14.99 2Q14.69 1.99 14.46 2.2Q14.23 2.4 14.23 2.71L14.23 5.26L14.23 21.24Q14.23 21.55 14.46 21.78Q14.69 22.01 15 22.01Q15.31 22.01 15.53 21.78Q15.74 21.55 15.74 21.24L15.74 7.18L18.05 7.18Q18.34 7.18 18.54 6.98Q18.74 6.79 18.77 6.52Q18.79 6.24 18.6 6.02L15.48 2.26Z" fill="rgba(255,255,255,1)"></path></g></svg>