<?xml version="1.0" standalone="no"?>
<svg xmlns="http://www.w3.org/2000/svg" width="24" height="24"><rect width="24" height="24" opacity="0"></rect><g><path d="M3.82 13.75Q3.53 14.06 3.56 14.46Q3.6 14.86 3.88 15.13Q4.15 15.41 4.56 15.41L8.09 15.41L8.09 20.71Q8.09 21.12 8.38 21.42Q8.66 21.72 9.1 21.72L14.93 21.72Q15.34 21.72 15.64 21.42Q15.94 21.12 15.94 20.71L15.94 15.41L19.44 15.41Q19.85 15.41 20.12 15.13Q20.4 14.86 20.44 14.46Q20.47 14.06 20.18 13.75L13.13 5.57Q12.84 5.23 12.42 5.11Q12 4.99 11.58 5.11Q11.16 5.23 10.85 5.57L3.82 13.75ZM18.34 3.77Q18.65 3.77 18.86 3.55Q19.08 3.34 19.08 3.02Q19.08 2.71 18.86 2.5Q18.65 2.28 18.34 2.28L5.88 2.28Q5.57 2.28 5.35 2.5Q5.14 2.71 5.14 3.02Q5.14 3.34 5.35 3.55Q5.57 3.77 5.88 3.77L18.34 3.77Z" fill="rgba(255,255,255,1)"></path></g></svg>